<?xml version="1.0" encoding="UTF-8" standalone="no"?>
<!-- Generator: Adobe Illustrator 19.0.0, SVG Export Plug-In . SVG Version: 6.00 Build 0)  -->

<svg
   version="1.1"
   id="Layer_1"
   x="0px"
   y="0px"
   viewBox="0 0 503.607 503.607"
   style="enable-background:new 0 0 503.607 503.607;"
   xml:space="preserve"
   sodipodi:docname="files-icon.svg"
   inkscape:version="1.2.1 (9c6d41e410, 2022-07-14)"
   xmlns:inkscape="http://www.inkscape.org/namespaces/inkscape"
   xmlns:sodipodi="http://sodipodi.sourceforge.net/DTD/sodipodi-0.dtd"
   xmlns="http://www.w3.org/2000/svg"
   xmlns:svg="http://www.w3.org/2000/svg"><defs
   id="defs45" /><sodipodi:namedview
   id="namedview43"
   pagecolor="#505050"
   bordercolor="#eeeeee"
   borderopacity="1"
   inkscape:showpageshadow="0"
   inkscape:pageopacity="0"
   inkscape:pagecheckerboard="0"
   inkscape:deskcolor="#505050"
   showgrid="false"
   inkscape:zoom="1.6778957"
   inkscape:cx="251.50551"
   inkscape:cy="251.50551"
   inkscape:window-width="1920"
   inkscape:window-height="1011"
   inkscape:window-x="0"
   inkscape:window-y="32"
   inkscape:window-maximized="1"
   inkscape:current-layer="g6" />
<g
   id="g10">
	<g
   id="g8">
		<g
   id="g6">
			<path
   d="M461.539,108.594c-0.05-0.764-0.201-1.494-0.453-2.216c-0.092-0.269-0.159-0.537-0.277-0.789     c-0.403-0.865-0.915-1.679-1.603-2.384c-0.017-0.008-0.017-0.025-0.034-0.034L358.467,2.468     c-0.017-0.017-0.034-0.025-0.042-0.034c-0.705-0.697-1.528-1.209-2.392-1.612c-0.235-0.109-0.478-0.176-0.73-0.26     c-0.755-0.269-1.528-0.428-2.325-0.47C352.818,0.084,352.684,0,352.525,0H117.508c-13.883,0-25.18,11.298-25.18,25.18v402.885     c0,13.883,11.298,25.18,25.18,25.18h318.951c13.883,0,25.18-11.298,25.18-25.18V109.115     C461.639,108.93,461.547,108.779,461.539,108.594z M159.475,100.721h151.082c4.633,0,8.393,3.752,8.393,8.393     s-3.76,8.393-8.393,8.393H159.475c-4.633,0-8.393-3.752-8.393-8.393S154.842,100.721,159.475,100.721z M411.279,369.311H159.475     c-4.633,0-8.393-3.752-8.393-8.393c0-4.642,3.76-8.393,8.393-8.393h251.803c4.633,0,8.393,3.752,8.393,8.393     C419.672,365.56,415.912,369.311,411.279,369.311z M411.279,318.951H159.475c-4.633,0-8.393-3.752-8.393-8.393     s3.76-8.393,8.393-8.393h251.803c4.633,0,8.393,3.752,8.393,8.393S415.912,318.951,411.279,318.951z M411.279,268.59H159.475     c-4.633,0-8.393-3.752-8.393-8.393s3.76-8.393,8.393-8.393h251.803c4.633,0,8.393,3.752,8.393,8.393     S415.912,268.59,411.279,268.59z M411.279,218.229H159.475c-4.633,0-8.393-3.752-8.393-8.393s3.76-8.393,8.393-8.393h251.803     c4.633,0,8.393,3.752,8.393,8.393S415.912,218.229,411.279,218.229z M411.279,167.869H159.475c-4.633,0-8.393-3.752-8.393-8.393     s3.76-8.393,8.393-8.393h251.803c4.633,0,8.393,3.752,8.393,8.393S415.912,167.869,411.279,167.869z M369.311,100.721     c-4.625,0-8.393-3.76-8.393-8.393V28.655l72.066,72.066H369.311z"
   id="path2"
   style="fill:#3c1641;fill-opacity:1" />
			<path
   d="M75.541,428.066V50.361h-8.393c-13.883,0-25.18,11.298-25.18,25.18v402.885c0,13.883,11.298,25.18,25.18,25.18h318.951     c13.883,0,25.18-11.298,25.18-25.18v-8.393H117.508C94.367,470.033,75.541,451.206,75.541,428.066z"
   id="path4"
   style="fill:#3c1641;fill-opacity:1" />
		</g>
	</g>
</g>
<g
   id="g12">
</g>
<g
   id="g14">
</g>
<g
   id="g16">
</g>
<g
   id="g18">
</g>
<g
   id="g20">
</g>
<g
   id="g22">
</g>
<g
   id="g24">
</g>
<g
   id="g26">
</g>
<g
   id="g28">
</g>
<g
   id="g30">
</g>
<g
   id="g32">
</g>
<g
   id="g34">
</g>
<g
   id="g36">
</g>
<g
   id="g38">
</g>
<g
   id="g40">
</g>
</svg>
